<svg width="46" height="16" viewBox="0 0 46 16" fill="none" xmlns="http://www.w3.org/2000/svg">
<path d="M21.1414 0H11.3169H1.4923C0.949707 0 0.509827 0.43988 0.509827 0.98247V15.0175C0.509827 15.5601 0.949707 16 1.4923 16H11.3169H21.1414C21.684 16 22.1239 15.5601 22.1239 15.0175V0.98247C22.1239 0.43988 21.684 0 21.1414 0Z" fill="#5286F9"/>
<path d="M12.0677 5.20417C12.2837 5.45155 12.4717 5.72384 12.6265 6.01647C12.94 6.60921 13.1185 7.28402 13.1185 7.99999C13.1185 8.71596 12.94 9.39068 12.6265 9.9835C12.4717 10.2761 12.2837 10.5483 12.0677 10.7957C11.8455 11.0503 11.5937 11.2781 11.3173 11.4741C12.0119 11.9665 12.8591 12.2573 13.7735 12.2573C16.121 12.2573 18.0308 10.3474 18.0308 7.99999C18.0308 5.65254 16.121 3.74265 13.7735 3.74265C12.8591 3.74265 12.0119 4.03334 11.3173 4.52586C11.5936 4.72182 11.8454 4.94966 12.0677 5.20417Z" fill="#FFB655"/>
<path d="M12.6268 6.01654C12.472 5.72382 12.2839 5.45162 12.068 5.20424C11.8456 4.94964 11.5939 4.72193 11.3176 4.52601C10.6231 4.03349 9.77576 3.7428 8.86143 3.7428C6.51393 3.7428 4.60413 5.65265 4.60413 8.0001C4.60413 10.3475 6.51398 12.2574 8.86143 12.2574C9.77576 12.2574 10.6231 11.9667 11.3176 11.4742C11.5939 11.2783 11.8457 11.0504 12.068 10.7959C12.2839 10.5485 12.472 10.2762 12.6268 9.9837C12.9403 9.39087 13.1188 8.71606 13.1188 8.00018C13.1188 7.28405 12.9403 6.60928 12.6268 6.01654Z" fill="#D8143A"/>
<path d="M8.86072 12.2574C6.51322 12.2574 4.60342 10.3476 4.60342 8.00013C4.60342 5.65268 6.51327 3.74283 8.86072 3.74283C9.77505 3.74283 10.6223 4.03352 11.3169 4.52604V0H1.4923C0.949707 0 0.509827 0.43988 0.509827 0.98247V15.0175C0.509827 15.5601 0.949707 16 1.4923 16H11.3169V11.4741C10.6223 11.9666 9.77505 12.2574 8.86072 12.2574Z" fill="#3D6DEB"/>
<g clip-path="url(#clip0_1_1655)">
<path d="M37.4634 2.76842C37.2663 2.56842 37.1568 2.30526 37.1677 2.03158C37.1677 1.75789 37.2772 1.50526 37.4853 1.30526C37.6825 1.11579 37.9563 0.999998 38.241 0.999998C38.5258 0.999998 38.7995 1.09474 39.0076 1.28421L45.2063 7.2421C45.3049 7.33684 45.3816 7.45263 45.4363 7.57895C45.4911 7.70526 45.5239 7.8421 45.5239 7.97895C45.5239 8.11579 45.4911 8.25263 45.4363 8.38947C45.3816 8.51579 45.3049 8.63158 45.2063 8.72632L39.0076 14.6842C38.9091 14.7789 38.7886 14.8632 38.6572 14.9158C38.5148 14.9684 38.3724 15 38.2301 15C38.0877 15 37.9344 14.9789 37.8029 14.9263C37.6715 14.8737 37.551 14.7895 37.4415 14.6947C37.343 14.6 37.2663 14.4737 37.2115 14.3474C37.1458 14.2211 37.1239 14.0842 37.1239 13.9368C37.1239 13.8 37.1568 13.6632 37.2115 13.5368C37.2663 13.4105 37.3539 13.2947 37.4634 13.1895L42.8846 7.97895L41.8551 7L37.4634 2.76842Z" fill="#181725"/>
</g>
<defs>
<clipPath id="clip0_1_1655">
<rect width="8.4" height="14" fill="white" transform="translate(45.5239 15) rotate(-180)"/>
</clipPath>
</defs>
</svg>
