<svg width="23" height="21" viewBox="0 0 23 21" fill="none" xmlns="http://www.w3.org/2000/svg">
<path d="M8.62974 20.3518C7.98119 20.3518 7.3592 20.0942 6.90061 19.6356C6.44201 19.177 6.18438 18.555 6.18438 17.9064C6.18438 17.2579 6.44201 16.6359 6.90061 16.1773C7.3592 15.7187 7.98119 15.4611 8.62974 15.4611C9.27829 15.4611 9.90028 15.7187 10.3589 16.1773C10.8175 16.6359 11.0751 17.2579 11.0751 17.9064C11.0751 18.555 10.8175 19.177 10.3589 19.6356C9.90028 20.0942 9.27829 20.3518 8.62974 20.3518ZM17.1885 20.3518C16.54 20.3518 15.918 20.0942 15.4594 19.6356C15.0008 19.177 14.7432 18.555 14.7432 17.9064C14.7432 17.2579 15.0008 16.6359 15.4594 16.1773C15.918 15.7187 16.54 15.4611 17.1885 15.4611C17.8371 15.4611 18.4591 15.7187 18.9176 16.1773C19.3762 16.6359 19.6339 17.2579 19.6339 17.9064C19.6339 18.555 19.3762 19.177 18.9176 19.6356C18.4591 20.0942 17.8371 20.3518 17.1885 20.3518ZM1.24719 3.1401C0.94196 3.13025 0.652526 3.00208 0.440094 2.78269C0.227662 2.56329 0.108887 2.26988 0.108887 1.96449C0.108887 1.6591 0.227662 1.36569 0.440094 1.14629C0.652526 0.926896 0.94196 0.798724 1.24719 0.788879L2.6545 0.788879C3.75735 0.788879 4.71105 1.55428 4.95069 2.63024L6.48271 9.52861C6.72236 10.6046 7.67605 11.37 8.77891 11.37H17.9637L19.7268 4.31509H8.30084C7.99848 4.3013 7.71308 4.17148 7.504 3.95263C7.29491 3.73379 7.17824 3.44277 7.17824 3.1401C7.17824 2.83743 7.29491 2.54641 7.504 2.32756C7.71308 2.10872 7.99848 1.9789 8.30084 1.9651H19.7268C20.0842 1.96499 20.437 2.04638 20.7582 2.20308C21.0795 2.35977 21.3608 2.58764 21.5808 2.86938C21.8007 3.15111 21.9536 3.47928 22.0276 3.82895C22.1017 4.17862 22.0951 4.54058 22.0083 4.88731L20.2452 11.9397C20.1181 12.4486 19.8245 12.9004 19.4111 13.2232C18.9977 13.546 18.4882 13.7213 17.9637 13.7212H8.77891C7.70881 13.7213 6.67067 13.3565 5.83593 12.6869C5.00119 12.0174 4.41979 11.0831 4.18774 10.0385L2.6545 3.1401H1.24719Z" fill="#53B175"/>
</svg>
