<svg width="25" height="25" viewBox="0 0 25 25" fill="none" xmlns="http://www.w3.org/2000/svg">
<path d="M5.40381 2.40161H19.4038C20.1862 2.40161 20.9365 2.71264 21.4897 3.26587C22.043 3.8191 22.354 4.56942 22.354 5.35181V7.35181C22.354 8.21903 21.9801 8.99943 21.3833 9.53931L21.3667 9.55493V20.3167C21.3667 20.8338 21.1611 21.3299 20.7954 21.6956C20.4297 22.0612 19.9336 22.2668 19.4165 22.2668H11.7769V22.2659L11.7671 22.2678C11.6473 22.2904 11.5257 22.302 11.4038 22.302H9.40381C9.28192 22.302 9.16029 22.2904 9.04053 22.2678L9.03076 22.3167L9.04053 22.2668H5.41455C4.89747 22.2668 4.40128 22.0612 4.03564 21.6956C3.67008 21.3299 3.46436 20.8337 3.46436 20.3167V9.47583L3.41162 9.52759C3.11558 9.25696 2.87704 8.92886 2.7124 8.56274C2.54127 8.18206 2.45303 7.76919 2.45361 7.35181V5.35181C2.45361 4.56942 2.76464 3.8191 3.31787 3.26587C3.8711 2.71264 4.62142 2.40161 5.40381 2.40161ZM15.3706 9.55103C14.8304 10.0356 14.1295 10.303 13.4038 10.302H11.4038C10.6486 10.302 9.95816 10.018 9.43701 9.55103L9.40381 9.52075L9.37061 9.55103C8.83035 10.0356 8.12954 10.303 7.40381 10.302H5.36377V20.3665H7.45361V15.3518C7.45361 14.8346 7.65921 14.3386 8.0249 13.9729C8.3906 13.6072 8.88664 13.4016 9.40381 13.4016H11.4038C11.921 13.4016 12.417 13.6072 12.7827 13.9729C13.1484 14.3386 13.354 14.8346 13.354 15.3518V20.3665H19.4673V10.302H17.4038C16.6486 10.302 15.9582 10.018 15.437 9.55103L15.4038 9.52075L15.3706 9.55103ZM9.354 20.3665H11.4038V20.3176H11.4536V15.302H9.354V20.3665ZM16.4038 13.4016H17.4038C17.6558 13.4016 17.8975 13.5018 18.0757 13.6799C18.2538 13.8581 18.354 14.0999 18.354 14.3518V17.3518C18.354 17.6038 18.2538 17.8455 18.0757 18.0237C17.8975 18.2018 17.6558 18.302 17.4038 18.302H16.4038C16.1519 18.302 15.9101 18.2018 15.7319 18.0237C15.5538 17.8455 15.4536 17.6038 15.4536 17.3518V14.3518C15.4536 14.0999 15.5538 13.8581 15.7319 13.6799C15.9101 13.5018 16.1519 13.4016 16.4038 13.4016ZM5.40381 4.302C5.12533 4.302 4.85853 4.41271 4.66162 4.60962C4.46471 4.80653 4.354 5.07333 4.354 5.35181V7.35181C4.354 7.63028 4.46471 7.89708 4.66162 8.09399C4.85853 8.29091 5.12533 8.40161 5.40381 8.40161H7.40381C7.68229 8.40161 7.94908 8.29091 8.146 8.09399C8.34291 7.89708 8.45361 7.63028 8.45361 7.35181V4.302H5.40381ZM10.354 7.35181C10.354 7.63028 10.4647 7.89708 10.6616 8.09399C10.8585 8.29091 11.1253 8.40161 11.4038 8.40161H13.4038C13.6823 8.40161 13.9491 8.29091 14.146 8.09399C14.3429 7.89708 14.4536 7.63028 14.4536 7.35181V4.302H10.354V7.35181ZM16.354 7.35181C16.354 7.63028 16.4647 7.89708 16.6616 8.09399C16.8585 8.29091 17.1253 8.40161 17.4038 8.40161H19.4038C19.6823 8.40161 19.9491 8.29091 20.146 8.09399C20.3429 7.89708 20.4536 7.63028 20.4536 7.35181V5.35181C20.4536 5.07333 20.3429 4.80653 20.146 4.60962C19.9491 4.41271 19.6823 4.302 19.4038 4.302H16.354V7.35181Z" fill="#181725" stroke="white" stroke-width="0.1"/>
</svg>
