<svg width="25" height="25" viewBox="0 0 25 25" fill="none" xmlns="http://www.w3.org/2000/svg">
<path d="M8.31363 12.4218C8.45446 12.3693 8.6059 12.3421 8.75901 12.3416C8.91212 12.3411 9.06379 12.3674 9.20505 12.419C9.3463 12.4706 9.47429 12.5463 9.58143 12.6418C9.68857 12.7373 9.7727 12.8506 9.82883 12.9749C9.88497 13.0993 9.91198 13.2322 9.90826 13.3659C9.90455 13.4995 9.87018 13.6311 9.8072 13.7529C9.74421 13.8748 9.65389 13.9844 9.54157 14.0752C9.42924 14.166 9.2972 14.2363 9.15324 14.2818C8.38756 14.5452 7.7304 15.0037 7.26727 15.5976C6.80414 16.1915 6.55648 16.8933 6.55652 17.6118V19.3518C6.55652 19.617 6.6772 19.8714 6.89201 20.0589C7.10682 20.2465 7.39817 20.3518 7.70196 20.3518H16.8655C17.1693 20.3518 17.4607 20.2465 17.6755 20.0589C17.8903 19.8714 18.011 19.617 18.011 19.3518V17.7048C18.0111 16.9633 17.7531 16.2392 17.2711 15.6286C16.7892 15.018 16.1061 14.5497 15.3123 14.2858C15.1674 14.2419 15.0342 14.1731 14.9203 14.0834C14.8065 13.9937 14.7145 13.885 14.6497 13.7637C14.5849 13.6424 14.5487 13.5109 14.5431 13.3771C14.5376 13.2434 14.5629 13.11 14.6175 12.9849C14.6721 12.8598 14.7549 12.7456 14.861 12.649C14.9672 12.5524 15.0944 12.4753 15.2353 12.4224C15.3761 12.3695 15.5277 12.3419 15.681 12.3411C15.8344 12.3403 15.9863 12.3664 16.1279 12.4178C17.3553 12.826 18.4117 13.5501 19.1572 14.4943C19.9026 15.4385 20.3018 16.5581 20.3019 17.7048V19.3518C20.3019 20.1475 19.9398 20.9105 19.2954 21.4731C18.6509 22.0357 17.7769 22.3518 16.8655 22.3518H7.70196C6.79059 22.3518 5.91654 22.0357 5.2721 21.4731C4.62767 20.9105 4.26563 20.1475 4.26562 19.3518V17.6118C4.26578 16.492 4.65196 15.3981 5.37391 14.4724C6.09587 13.5468 7.12019 12.8323 8.31363 12.4218ZM12.2837 2.35181C13.4989 2.35181 14.6643 2.77323 15.5236 3.52338C16.3828 4.27352 16.8655 5.29094 16.8655 6.35181V8.35181C16.8655 9.41267 16.3828 10.4301 15.5236 11.1802C14.6643 11.9304 13.4989 12.3518 12.2837 12.3518C11.0686 12.3518 9.90319 11.9304 9.04393 11.1802C8.18468 10.4301 7.70196 9.41267 7.70196 8.35181V6.35181C7.70196 5.29094 8.18468 4.27352 9.04393 3.52338C9.90319 2.77323 11.0686 2.35181 12.2837 2.35181ZM12.2837 4.35181C11.6762 4.35181 11.0935 4.56252 10.6638 4.93759C10.2342 5.31267 9.99285 5.82137 9.99285 6.35181V8.35181C9.99285 8.88224 10.2342 9.39095 10.6638 9.76602C11.0935 10.1411 11.6762 10.3518 12.2837 10.3518C12.8913 10.3518 13.474 10.1411 13.9036 9.76602C14.3333 9.39095 14.5746 8.88224 14.5746 8.35181V6.35181C14.5746 5.82137 14.3333 5.31267 13.9036 4.93759C13.474 4.56252 12.8913 4.35181 12.2837 4.35181Z" fill="#181725"/>
</svg>
